<svg width="34" height="25" viewBox="0 0 34 25" fill="none" xmlns="http://www.w3.org/2000/svg">
<path d="M3.81084 9.42996C3.84939 8.94965 4.06744 8.50148 4.42156 8.1747C4.77569 7.84793 5.2399 7.66653 5.72176 7.66663H17.2773C17.7592 7.66653 18.2234 7.84793 18.5775 8.1747C18.9317 8.50148 19.1497 8.94965 19.1883 9.42996L19.9578 19.0133C19.979 19.277 19.9453 19.5423 19.8589 19.7924C19.7726 20.0424 19.6353 20.2719 19.4559 20.4664C19.2765 20.6608 19.0588 20.816 18.8164 20.9222C18.5741 21.0284 18.3124 21.0832 18.0478 21.0833H4.95126C4.68668 21.0832 4.42499 21.0284 4.18265 20.9222C3.94032 20.816 3.72259 20.6608 3.54317 20.4664C3.36376 20.2719 3.22655 20.0424 3.14017 19.7924C3.0538 19.5423 3.02013 19.277 3.0413 19.0133L3.81084 9.42996V9.42996Z" stroke="black" stroke-width="2" stroke-linecap="round" stroke-linejoin="round"/>
<path d="M15.3346 10.5416V5.74996C15.3346 4.7333 14.9308 3.75827 14.2119 3.03938C13.493 2.32049 12.518 1.91663 11.5013 1.91663C10.4846 1.91663 9.50962 2.32049 8.79073 3.03938C8.07184 3.75827 7.66797 4.7333 7.66797 5.74996V10.5416" stroke="black" stroke-width="2" stroke-linecap="round" stroke-linejoin="round"/>
<path d="M11.3125 3.25C12.0999 3.25 12.855 3.57924 13.4117 4.16529C13.9685 4.75134 14.2812 5.5462 14.2812 6.375V7H8.34375V6.375C8.34375 5.5462 8.65653 4.75134 9.21328 4.16529C9.77003 3.57924 10.5251 3.25 11.3125 3.25ZM15.4688 7V6.375C15.4688 5.21468 15.0309 4.10188 14.2514 3.28141C13.472 2.46094 12.4148 2 11.3125 2C10.2102 2 9.15304 2.46094 8.37359 3.28141C7.59414 4.10188 7.15625 5.21468 7.15625 6.375V7C4.86082 7 3 8.86082 3 11.1562V19.5C3 20.163 3.25022 20.7989 3.69562 21.2678C4.14102 21.7366 4.74511 22 5.375 22H17.25C17.8799 22 18.484 21.7366 18.9294 21.2678C19.3748 20.7989 19.625 20.163 19.625 19.5V11.1562C19.625 8.86082 17.7642 7 15.4688 7Z" fill="black"/>
<path d="M26.455 16.63C27.415 15.83 28.18 15.165 28.75 14.635C29.32 14.095 29.795 13.535 30.175 12.955C30.555 12.375 30.745 11.805 30.745 11.245C30.745 10.735 30.625 10.335 30.385 10.045C30.145 9.755 29.775 9.61 29.275 9.61C28.775 9.61 28.39 9.78 28.12 10.12C27.85 10.45 27.71 10.905 27.7 11.485H25.66C25.7 10.285 26.055 9.375 26.725 8.755C27.405 8.135 28.265 7.825 29.305 7.825C30.445 7.825 31.32 8.13 31.93 8.74C32.54 9.34 32.845 10.135 32.845 11.125C32.845 11.905 32.635 12.65 32.215 13.36C31.795 14.07 31.315 14.69 30.775 15.22C30.235 15.74 29.53 16.37 28.66 17.11H33.085V18.85H25.675V17.29L26.455 16.63Z" fill="black"/>
</svg>
