<svg width="28" height="28" viewBox="0 0 28 28" fill="none" xmlns="http://www.w3.org/2000/svg">
<path d="M7 20.7842C7 20.1816 7.45033 19.6723 8.05 19.6058C12.5504 19.1077 15.47 19.1526 19.9605 19.6169C20.1847 19.6405 20.3973 19.7288 20.5721 19.8711C20.747 20.0135 20.8766 20.2037 20.9452 20.4185C21.0137 20.6333 21.0182 20.8634 20.9581 21.0807C20.898 21.298 20.776 21.4932 20.6068 21.6422C15.3073 26.2617 12.2786 26.1981 7.37333 21.6469C7.13417 21.4252 7 21.1102 7 20.7847V20.7842Z" fill="black"/>
<path fill-rule="evenodd" clip-rule="evenodd" d="M19.9017 20.1967C15.4468 19.7359 12.5692 19.6927 8.11489 20.1857C7.96826 20.2027 7.83309 20.2733 7.73526 20.3839C7.63742 20.4944 7.58379 20.6371 7.58464 20.7847C7.58464 20.9516 7.65406 21.1097 7.77131 21.2193C10.2026 23.4745 12.0448 24.4936 13.8456 24.5C15.6527 24.5064 17.5941 23.4955 20.2249 21.203C20.3085 21.1286 20.3686 21.0315 20.3981 20.9236C20.4275 20.8156 20.425 20.7015 20.3907 20.5949C20.3565 20.4884 20.2921 20.3941 20.2053 20.3235C20.1184 20.253 20.013 20.2091 19.9017 20.1973V20.1967ZM7.98714 19.026C12.5348 18.5226 15.497 18.5681 20.0225 19.0365C20.3598 19.0717 20.6796 19.2045 20.9426 19.4187C21.2056 19.6328 21.4005 19.919 21.5034 20.2422C21.6063 20.5654 21.6127 20.9116 21.5219 21.2383C21.431 21.5651 21.2469 21.8583 20.992 22.0821C18.3232 24.4084 16.1007 25.6754 13.8421 25.6667C11.577 25.6585 9.45247 24.3699 6.97856 22.0745C6.80143 21.9095 6.66023 21.7098 6.56377 21.4878C6.46732 21.2657 6.41768 21.0262 6.41797 20.7842C6.41712 20.3492 6.57676 19.9293 6.8663 19.6048C7.15584 19.2803 7.55494 19.074 7.98714 19.0254V19.026Z" fill="black"/>
<path d="M18.6693 11.6667C18.6693 12.9043 18.1776 14.0913 17.3024 14.9665C16.4273 15.8417 15.2403 16.3333 14.0026 16.3333C12.7649 16.3333 11.5779 15.8417 10.7028 14.9665C9.8276 14.0913 9.33594 12.9043 9.33594 11.6667C9.33594 10.429 9.8276 9.242 10.7028 8.36683C11.5779 7.49166 12.7649 7 14.0026 7C15.2403 7 16.4273 7.49166 17.3024 8.36683C18.1776 9.242 18.6693 10.429 18.6693 11.6667Z" fill="black"/>
<path fill-rule="evenodd" clip-rule="evenodd" d="M14.0026 15.1667C14.9309 15.1667 15.8211 14.7979 16.4775 14.1415C17.1339 13.4852 17.5026 12.5949 17.5026 11.6667C17.5026 10.7384 17.1339 9.84817 16.4775 9.19179C15.8211 8.53542 14.9309 8.16667 14.0026 8.16667C13.0743 8.16667 12.1841 8.53542 11.5277 9.19179C10.8714 9.84817 10.5026 10.7384 10.5026 11.6667C10.5026 12.5949 10.8714 13.4852 11.5277 14.1415C12.1841 14.7979 13.0743 15.1667 14.0026 15.1667ZM14.0026 16.3333C15.2403 16.3333 16.4273 15.8417 17.3024 14.9665C18.1776 14.0913 18.6693 12.9043 18.6693 11.6667C18.6693 10.429 18.1776 9.242 17.3024 8.36683C16.4273 7.49166 15.2403 7 14.0026 7C12.7649 7 11.5779 7.49166 10.7028 8.36683C9.8276 9.242 9.33594 10.429 9.33594 11.6667C9.33594 12.9043 9.8276 14.0913 10.7028 14.9665C11.5779 15.8417 12.7649 16.3333 14.0026 16.3333Z" fill="black"/>
</svg>
