<svg width="26" height="26" viewBox="0 0 26 26" fill="none" xmlns="http://www.w3.org/2000/svg">
<path d="M22.7513 22.75L17.8915 17.8815L22.7513 22.75ZM20.5846 11.375C20.5846 13.8172 19.6145 16.1593 17.8876 17.8862C16.1607 19.6131 13.8185 20.5833 11.3763 20.5833C8.9341 20.5833 6.59192 19.6131 4.86503 17.8862C3.13813 16.1593 2.16797 13.8172 2.16797 11.375C2.16797 8.93276 3.13813 6.59058 4.86503 4.86368C6.59192 3.13679 8.9341 2.16663 11.3763 2.16663C13.8185 2.16663 16.1607 3.13679 17.8876 4.86368C19.6145 6.59058 20.5846 8.93276 20.5846 11.375V11.375Z" stroke="black" stroke-width="2" stroke-linecap="round"/>
<path d="M11.4154 3.08337C6.82057 3.08337 3.08203 6.82192 3.08203 11.4167C3.08203 16.0115 6.82057 19.75 11.4154 19.75C13.2643 19.7497 15.06 19.1307 16.5164 17.9917L21.0956 22.5709L22.5685 21.098L17.9893 16.5188C19.1289 15.0622 19.7483 13.2661 19.7487 11.4167C19.7487 6.82192 16.0102 3.08337 11.4154 3.08337Z" fill="black"/>
</svg>
